#!OML:ASF I:\Actors\actors\Patient Classification 1\Patient 1\Session 1\Subject1.ASF
:FULLY-SPECIFIED
:DEGREES
475
root 0.303755 17.4758 8.73085 2.22537 51.6299 -9.77121
lowerback 3.41546 6.56503 6.77538
upperback -9.19556 9.54813 -1.54215
thorax -10.4333 4.0792 -6.48341
lowerneck -13.3785 -5.97362 -2.93631
upperneck 17.4056 -9.57965 10.6485
head 8.29759 -3.64351 2.94924
rclavicle -1.17382e-013 -4.13472e-014
rhumerus 2.01367 34.2486 -97.1554
rradius 133.672
rwrist 24.4545
rhand 45.7999 -56.1913
rfingers 7.12502
rthumb 66.9912 -59.6598
lclavicle -1.17382e-013 -4.13472e-014
lhumerus -14.3826 -25.9725 97.4734
lradius 140.48
lwrist -13.7878
lhand 61.4215 11.3341
lfingers 7.12502
lthumb 74.8485 -26.2061
rfemur 3.43905 5.71647 30.4042
rtibia 6.63506
rfoot -40.7133 -47.3404
rtoes 34.9202
lfemur -15.4842 -35.847 -4.76338
ltibia 1.63446
lfoot -2.6146 0.740795
ltoes -26.1384
476
root 0.311511 17.4741 8.74365 2.31527 51.9922 -9.69281
lowerback 3.27499 6.57383 6.67022
upperback -9.19149 9.53934 -1.55498
thorax -10.3583 4.08982 -6.4186
lowerneck -14.4012 -6.45176 -3.53718
upperneck 18.3276 -10.2863 10.9757
head 8.902 -3.9061 3.04752
rclavicle -2.3059e-014 5.56597e-015
rhumerus 1.98425 34.2949 -97.1701
rradius 133.694
rwrist 24.4591
rhand 45.8261 -56.1582
rfingers 7.12502
rthumb 67.0109 -59.5857
lclavicle -2.3059e-014 5.56597e-015
lhumerus -14.3625 -25.8918 97.4915
lradius 140.515
lwrist -13.8284
lhand 61.5547 11.4069
lfingers 7.12502
lthumb 74.8652 -26.6216
rfemur 3.39428 5.47385 30.3516
rtibia 6.71236
rfoot -40.7386 -47.4328
rtoes 34.7922
lfemur -15.5499 -35.9066 -4.81649
ltibia 1.5512
lfoot -2.61266 0.452703
ltoes -26.0608
477
root 0.323973 17.4856 8.76047 2.00119 52.0798 -9.61728
lowerback 3.51297 6.62957 6.5572
upperback -9.06818 9.6129 -1.52847
thorax -10.37 4.13421 -6.35884
lowerneck -14.4357 -6.44912 -3.62091
upperneck 18.3545 -10.2789 11.0384
head 8.9252 -3.89917 3.08305
rclavicle -6.51517e-014 -1.66979e-014
rhumerus 2.00493 34.3369 -97.1684
rradius 133.704
rwrist 24.4808
rhand 45.881 -56.3203
rfingers 7.12502
rthumb 67.0519 -59.6617
lclavicle -6.51517e-014 -1.66979e-014
lhumerus -14.3644 -25.9391 97.4583
lradius 140.528
lwrist -13.8587
lhand 61.5566 11.3256
lfingers 7.12502
lthumb 74.8654 -26.7102
rfemur 3.85685 5.26371 30.3636
rtibia 6.74099
rfoot -40.5982 -47.4072
rtoes 34.7656
lfemur -14.7467 -35.7783 -5.32351
ltibia 1.22217
lfoot -2.62027 0.145936
ltoes -26.1872
478
root 0.331524 17.4885 8.77399 1.87888 52.1999 -9.61602
lowerback 3.57047 6.62514 6.45933
upperback -9.02081 9.60119 -1.49377
thorax -10.3723 4.13793 -6.27302
lowerneck -13.4609 -5.93121 -3.25492
upperneck 17.4654 -9.51024 10.9136
head 8.35719 -3.59934 3.09788
rclavicle -1.2275e-014 1.27222e-014
rhumerus 2.04989 34.4436 -97.2264
rradius 133.688
rwrist 24.4458
rhand 45.8816 -56.5149
rfingers 7.12502
rthumb 67.0523 -59.8554
lclavicle -1.2275e-014 1.27222e-014
lhumerus -14.3104 -25.9248 97.3568
lradius 140.484
lwrist -13.7975
lhand 61.4279 11.2162
lfingers 7.12502
lthumb 74.8493 -26.3475
rfemur 3.99166 5.13921 30.401
rtibia 6.835
rfoot -40.6268 -47.3977
rtoes 34.671
lfemur -14.4149 -35.6648 -5.48483
ltibia 0.980311
lfoot -2.60506 -0.0867721
ltoes -26.286
479
root 0.337131 17.4883 8.7857 1.87559 52.281 -9.59205
lowerback 3.55465 6.60254 6.37367
upperback -8.99388 9.56117 -1.4738
thorax -10.3535 4.12795 -6.19812
lowerneck -13.3564 -5.86534 -3.33402
upperneck 17.3166 -9.42273 11.1031
head 8.29581 -3.55417 3.187
rclavicle -2.33572e-015 -8.74653e-015
rhumerus 2.13109 34.5236 -97.2328
rradius 133.696
rwrist 24.3852
rhand 45.9593 -56.6423
rfingers 7.12502
rthumb 67.1103 -59.8606
lclavicle -2.33572e-015 -8.74653e-015
lhumerus -14.2099 -25.8574 97.2194
lradius 140.459
lwrist -13.6571
lhand 61.3119 11.1896
lfingers 7.12502
lthumb 74.8339 -25.95
rfemur 4.00199 5.03343 30.3928
rtibia 6.91733
rfoot -40.6222 -47.4099
rtoes 34.3144
lfemur -14.2752 -35.6431 -5.53383
ltibia 0.8105
lfoot -2.58294 -0.18482
ltoes -26.2452
480
root 0.342319 17.489 8.79476 1.88849 52.2782 -9.55668
lowerback 3.55904 6.61611 6.32436
upperback -8.96735 9.5732 -1.4699
thorax -10.332 4.13958 -6.16653
lowerneck -13.393 -5.85305 -3.35955
upperneck 17.3174 -9.40856 11.1451
head 8.30519 -3.54365 3.20632
rclavicle 6.11263e-015 4.77083e-015
rhumerus 2.21761 34.5601 -97.0934
rradius 133.761
rwrist 24.3605
rhand 46.0002 -56.7068
rfingers 7.12502
rthumb 67.1409 -59.8604
lclavicle 6.11263e-015 4.77083e-015
lhumerus -14.176 -25.801 97.214
lradius 140.483
lwrist -13.5298
lhand 61.2999 11.0908
lfingers 7.12502
lthumb 74.8322 -26.0049
rfemur 4.05449 4.99456 30.3798
rtibia 6.92007
rfoot -40.3977 -47.4605
rtoes 33.9007
lfemur -14.1585 -35.5392 -5.59833
ltibia 0.721028
lfoot -2.57661 -0.298411
ltoes -26.0904
481
root 0.345043 17.4854 8.79917 2.04343 52.3008 -9.56365
lowerback 3.48937 6.63315 6.34126
upperback -9.03651 9.59567 -1.51116
thorax -10.3564 4.14618 -6.21767
lowerneck -13.5141 -5.88778 -3.29184
upperneck 17.4834 -9.47157 11.0595
head 8.38006 -3.56558 3.15707
rclavicle -7.51406e-014 -1.59028e-015
rhumerus 2.16493 34.5486 -97.0076
rradius 133.86
rwrist 24.367
rhand 45.9743 -56.6596
rfingers 7.12502
rthumb 67.1216 -59.8541
lclavicle -7.51406e-014 -1.59028e-015
lhumerus -14.2309 -25.8033 97.2866
lradius 140.487
lwrist -13.451
lhand 61.3808 10.7954
lfingers 7.12502
lthumb 74.8431 -26.5961
rfemur 3.91075 5.03112 30.3817
rtibia 6.91153
rfoot -40.3054 -47.5081
rtoes 33.7638
lfemur -14.4055 -35.4165 -5.45319
ltibia 0.777006
lfoot -2.58465 -0.392334
ltoes -25.8669
